<svg xmlns="http://www.w3.org/2000/svg" viewBox="0 0 1200 600" role="img" aria-label="Workplace meeting sketched in pen">
  <defs>
    <style>
      .ink-1 { fill: none; stroke: #2d2d2d; stroke-width: 2.6; stroke-linecap: round; stroke-linejoin: round; }
      .ink-2 { fill: none; stroke: #4d4d4d; stroke-width: 1.8; stroke-linecap: round; stroke-linejoin: round; }
      .ink-3 { fill: none; stroke: #7a7a7a; stroke-width: 1.2; stroke-linecap: round; stroke-linejoin: round; }
      .wash { fill: #f2f0ed; }
      .table { fill: #e2e0dc; stroke: #7b7b7b; stroke-width: 1.4; }
    </style>
  </defs>

  <rect width="1200" height="600" class="wash"/>

  <!-- Table, slightly skewed and imperfect -->
  <path class="table" d="M190 395 C300 360, 460 340, 610 338 C770 336, 930 360, 1030 402 C1040 455, 1010 495, 945 525 C860 565, 700 586, 610 586 C520 586, 350 565, 275 525 C215 495, 180 455, 190 395 Z"/>
  <path class="ink-3" d="M215 420 C320 385, 470 365, 610 362 C760 360, 900 382, 1005 420"/>
  <path class="ink-3" d="M230 468 C350 445, 485 430, 610 430 C740 430, 875 448, 990 475"/>

  <!-- Person 1 (left, leaning) -->
  <path class="ink-1" d="M250 210 C262 190, 288 180, 315 186 C340 192, 358 214, 355 240 C352 270, 325 286, 298 282 C275 279, 250 255, 250 210 Z"/>
  <path class="ink-2" d="M282 220 C296 216, 312 219, 322 232"/>
  <path class="ink-1" d="M235 295 C260 285, 300 285, 335 305 C370 326, 395 355, 405 390"/>
  <path class="ink-1" d="M220 330 C245 350, 268 365, 288 390 C302 408, 312 426, 325 448"/>
  <path class="ink-2" d="M355 330 C372 344, 388 360, 406 380"/>
  <path class="ink-2" d="M312 392 C330 396, 352 402, 370 414"/>

  <!-- Person 2 (center, seated, gesturing) -->
  <path class="ink-1" d="M560 170 C585 150, 620 155, 642 180 C662 202, 662 230, 640 248 C620 265, 590 268, 566 252 C542 235, 538 195, 560 170 Z"/>
  <path class="ink-2" d="M575 210 C590 204, 612 206, 624 220"/>
  <path class="ink-1" d="M530 280 C565 268, 610 270, 650 295 C690 320, 720 360, 725 405"/>
  <path class="ink-1" d="M505 320 C530 345, 552 365, 575 390 C592 410, 602 430, 612 455"/>
  <path class="ink-1" d="M690 325 C670 350, 652 372, 635 397 C620 420, 610 440, 602 458"/>
  <path class="ink-2" d="M565 360 C592 372, 618 372, 645 360"/>
  <path class="ink-2" d="M585 455 C600 470, 620 480, 642 488"/>

  <!-- Person 3 (right, standing, arms crossed) -->
  <path class="ink-1" d="M865 190 C892 176, 920 185, 935 210 C952 238, 940 270, 910 280 C880 290, 848 270, 844 240 C840 214, 846 198, 865 190 Z"/>
  <path class="ink-2" d="M872 222 C886 216, 904 218, 915 232"/>
  <path class="ink-1" d="M840 300 C868 288, 908 292, 944 315 C980 340, 1005 374, 1015 415"/>
  <path class="ink-1" d="M962 330 C942 345, 918 360, 898 380 C884 395, 874 410, 865 430"/>
  <path class="ink-1" d="M830 345 C850 370, 870 390, 885 410"/>
  <path class="ink-2" d="M900 352 C918 352, 936 356, 950 366"/>
  <path class="ink-2" d="M870 320 C885 318, 900 318, 915 322"/>

  <!-- Whiteboard with no text, just faint boundary -->
  <path class="ink-3" d="M760 95 C840 88, 945 98, 1035 120 C1045 155, 1035 205, 1005 230 C925 245, 825 238, 740 215"/>
  <path class="ink-3" d="M742 118 C820 110, 922 120, 1008 142"/>

  <!-- Hands and markers implied -->
  <path class="ink-1" d="M425 405 C455 420, 482 430, 510 440"/>
  <path class="ink-1" d="M705 418 C680 435, 650 447, 618 455"/>
  <path class="ink-2" d="M960 402 C945 415, 930 425, 915 434"/>

  <!-- Subtle ambient sketch lines -->
  <path class="ink-3" d="M170 185 C260 160, 385 145, 505 142"/>
  <path class="ink-3" d="M520 125 C640 118, 780 125, 900 150"/>
  <path class="ink-3" d="M200 520 C330 560, 500 585, 620 586 C780 588, 930 570, 1035 535"/>
</svg>
