<svg xmlns="http://www.w3.org/2000/svg" viewBox="0 0 1200 600" role="img" aria-label="Operating leaders discussing around a table">
  <defs>
    <style>
      .line-dark { fill: none; stroke: #2f2f2f; stroke-width: 3; stroke-linecap: round; stroke-linejoin: round; }
      .line-mid { fill: none; stroke: #6b6b6b; stroke-width: 2.2; stroke-linecap: round; stroke-linejoin: round; }
      .line-light { fill: none; stroke: #9a9a9a; stroke-width: 1.6; stroke-linecap: round; stroke-linejoin: round; }
      .shade { fill: #e6e6e6; stroke: #8a8a8a; stroke-width: 1.5; }
    </style>
  </defs>

  <rect width="1200" height="600" fill="#f6f5f2"/>

  <!-- Table -->
  <path class="shade" d="M230 430 C320 390, 480 365, 600 360 C720 355, 880 375, 970 420 C980 470, 955 505, 900 525 C820 555, 680 570, 600 570 C520 570, 370 555, 300 525 C245 505, 220 470, 230 430 Z"/>
  <path class="line-mid" d="M250 435 C340 405, 485 385, 600 380 C715 375, 860 395, 950 430"/>
  <path class="line-light" d="M260 470 C360 445, 500 430, 600 425 C700 420, 840 435, 940 465"/>

  <!-- Center person -->
  <path class="line-dark" d="M600 165 C630 160, 655 175, 662 200 C670 232, 650 255, 620 262 C585 270, 555 252, 545 225 C535 198, 552 170, 600 165 Z"/>
  <path class="line-mid" d="M562 210 C575 205, 595 208, 610 220"/>
  <path class="line-dark" d="M545 270 C575 260, 610 260, 645 275 C680 290, 705 320, 708 360 C710 405, 700 440, 680 470"/>
  <path class="line-mid" d="M560 300 C585 325, 610 330, 635 320"/>
  <path class="line-dark" d="M520 330 C545 350, 565 365, 585 388 C595 400, 600 415, 605 430"/>
  <path class="line-dark" d="M685 335 C665 360, 650 380, 635 405 C625 420, 620 435, 615 448"/>

  <!-- Left person -->
  <path class="line-dark" d="M315 210 C345 195, 380 205, 392 235 C405 265, 390 295, 355 300 C320 305, 295 285, 290 255 C285 225, 295 215, 315 210 Z"/>
  <path class="line-mid" d="M318 245 C332 238, 350 240, 360 252"/>
  <path class="line-dark" d="M300 305 C325 300, 360 305, 395 325 C430 345, 455 370, 465 400"/>
  <path class="line-dark" d="M285 345 C310 365, 335 382, 355 405 C370 422, 380 438, 392 455"/>
  <path class="line-mid" d="M410 350 C430 360, 450 370, 470 385"/>

  <!-- Right person -->
  <path class="line-dark" d="M860 215 C890 205, 920 220, 928 250 C936 282, 920 305, 885 312 C850 320, 820 300, 815 270 C810 240, 828 222, 860 215 Z"/>
  <path class="line-mid" d="M850 248 C865 242, 885 245, 900 257"/>
  <path class="line-dark" d="M820 320 C845 310, 880 312, 915 330 C950 350, 975 377, 990 410"/>
  <path class="line-dark" d="M955 340 C935 360, 915 380, 900 405 C890 420, 882 435, 872 452"/>
  <path class="line-mid" d="M835 360 C820 375, 805 390, 790 405"/>

  <!-- Hands toward table -->
  <path class="line-dark" d="M455 415 C480 430, 505 440, 530 450"/>
  <path class="line-dark" d="M745 420 C725 435, 700 445, 670 455"/>
  <path class="line-mid" d="M575 455 C590 468, 605 475, 625 482"/>

  <!-- Ambient sketch lines -->
  <path class="line-light" d="M180 200 C260 170, 360 150, 470 145"/>
  <path class="line-light" d="M730 140 C840 145, 945 170, 1020 210"/>
  <path class="line-light" d="M200 520 C320 560, 470 585, 600 590 C730 595, 880 575, 1020 530"/>
</svg>
